# xmcd CD database file
#
# Track frame offsets:
#	150
#	13520
#	25175
#	38329
#	50825
#	62479
#	74385
#	85607
#	97966
#	108349
#	118915
#	129612
#	139843
#	150771
#	160802
#	171471
#	181839
#	195312
#	206003
#	217660
#	234679
#	247919
#	262310
#	273902
#
# Disc length: 3812 seconds
#
# Revision: 0
# Processed by: cddbd v1.5PL3 Copyright (c) Steve Scherf et al.
# Submitted via: CDex 1.50
#
DISCID=420ee218
DTITLE=Sonny Stitt - 1946-1950
DYEAR=1900
DGENRE=Jazz
TTITLE0=Be Bop in Pastel (Bouncing With Bud)
TTITLE1=Fools Fancy (Wail)
TTITLE2=Bombay
TTITLE3=Ray's Idea
TTITLE4=Serenade to a Square
TTITLE5=Good Kick
TTITLE6=Seven-Up
TTITLE7=Blues in Be-Bop
TTITLE8=Stardust
TTITLE9=Red Shoes
TTITLE10=Body and Soul
TTITLE11=Ratio and Proportion
TTITLE12=Royal Wedding
TTITLE13=Be Bop Blues
TTITLE14=Fine and Dandy
TTITLE15=Third Song
TTITLE16=All God's Chillun Got Rhythm
TTITLE17=Sonnyside
TTITLE18=Bud's Blues
TTITLE19=Sunset
TTITLE20=Strike Up the Band
TTITLE21=I Want to be Happy
TTITLE22=Taking a Chance on Love
TTITLE23=Fine and Dandy
EXTD=
EXTT0=
EXTT1=
EXTT2=
EXTT3=
EXTT4=
EXTT5=
EXTT6=
EXTT7=
EXTT8=
EXTT9=
EXTT10=
EXTT11=
EXTT12=
EXTT13=
EXTT14=
EXTT15=
EXTT16=
EXTT17=
EXTT18=
EXTT19=
EXTT20=
EXTT21=
EXTT22=
EXTT23=
PLAYORDER=
